<?xml version="1.0" standalone="no"?><!DOCTYPE svg PUBLIC "-//W3C//DTD SVG 1.1//EN" "http://www.w3.org/Graphics/SVG/1.1/DTD/svg11.dtd"><svg t="1611998267061" class="icon" viewBox="0 0 1024 1024" version="1.1" xmlns="http://www.w3.org/2000/svg" p-id="5310" xmlns:xlink="http://www.w3.org/1999/xlink" width="200" height="200"><defs><style type="text/css"></style></defs><path d="M805.8112 1003.52H217.6a97.0112 97.0112 0 0 1-96.9088-96.9088V558.08h-62.72a32 32 0 0 1-23.04-54.2208l457.6-474.24a32 32 0 0 1 46.08 0l457.6 474.24a32 32 0 0 1-23.04 54.2208h-70.4v348.5312A97.0112 97.0112 0 0 1 805.8112 1003.52zM133.2608 494.08h19.3792a32 32 0 0 1 32 32v380.5312A32.9344 32.9344 0 0 0 217.6 939.52h588.2112a32.9344 32.9344 0 0 0 32.9088-32.9088V526.08a32 32 0 0 1 32-32h27.0592L515.52 97.92z" p-id="5311" fill="#d81e06"></path><path d="M643.52 1003.52h-256a32 32 0 0 1-32-32V651.904a45.248 45.248 0 0 1 45.184-45.184h229.632a45.248 45.248 0 0 1 45.184 45.184V971.52a32 32 0 0 1-32 32z m-224-64h192V670.72h-192z" p-id="5312" fill="#d81e06"></path></svg>