<?xml version="1.0" standalone="no"?><!DOCTYPE svg PUBLIC "-//W3C//DTD SVG 1.1//EN" "http://www.w3.org/Graphics/SVG/1.1/DTD/svg11.dtd"><svg t="1611998205683" class="icon" viewBox="0 0 1024 1024" version="1.1" xmlns="http://www.w3.org/2000/svg" p-id="4477" xmlns:xlink="http://www.w3.org/1999/xlink" width="200" height="200"><defs><style type="text/css"></style></defs><path d="M598.9 557.7H424.7c-162 0-293.7 133.6-293.7 297.8v17.7C131 959 260.6 959 424.7 959h174.2c157.6 0 293.7 0 293.7-85.9v-17.7c0-164.1-131.7-297.7-293.7-297.7zM503.1 63c-128.2 0-232.6 105.9-232.6 236s104.3 236 232.6 236c128.2 0 232.6-105.9 232.6-236S631.3 63 503.1 63z m95.8 545.9C733 608.9 842 719.5 842 855.5v17.7c0 5.1-0.9 6.6-4.3 9.3-4.4 3.5-15.9 10.2-42.6 15.6-48.9 9.8-120.4 9.8-196.2 9.8H424.7c-77.4 0-150.4 0-198.4-9.7-25.7-5.2-36.5-11.7-40.6-15.1-2.7-2.2-4.1-3.6-4.1-9.8v-17.7c0-136 109.1-246.6 243.1-246.6h174.2z m-95.8-494.7c100.4 0 182 82.9 182 184.8s-81.7 184.8-182 184.8c-100.4 0-182-82.9-182-184.8-0.1-101.9 81.6-184.8 182-184.8z" p-id="4478"></path></svg>